<mxfile host="65bd71144e">
    <diagram id="6hdYZ8X15zlPcNFYbtH_" name="Page-1">
        <mxGraphModel dx="1480" dy="806" grid="1" gridSize="10" guides="1" tooltips="1" connect="1" arrows="1" fold="1" page="1" pageScale="1" pageWidth="827" pageHeight="1169" math="0" shadow="0">
            <root>
                <mxCell id="0"/>
                <mxCell id="1" parent="0"/>
                <mxCell id="2" value="Vertical Container" style="swimlane;" parent="1" vertex="1">
                    <mxGeometry x="60" y="90" width="1194" height="690" as="geometry"/>
                </mxCell>
                <mxCell id="3" value="" style="rounded=1;whiteSpace=wrap;html=1;" parent="2" vertex="1">
                    <mxGeometry x="70" y="100" width="360" height="180" as="geometry"/>
                </mxCell>
                <mxCell id="4" value="" style="rounded=1;whiteSpace=wrap;html=1;fillColor=#f9f7ed;strokeColor=#36393d;" parent="2" vertex="1">
                    <mxGeometry x="240" y="120" width="150" height="40" as="geometry"/>
                </mxCell>
                <mxCell id="5" value="&lt;font color=&quot;#000000&quot;&gt;\/&lt;/font&gt;" style="text;html=1;align=center;verticalAlign=middle;whiteSpace=wrap;rounded=0;fontStyle=1" parent="2" vertex="1">
                    <mxGeometry x="320" y="110" width="90" height="60" as="geometry"/>
                </mxCell>
                <mxCell id="6" value="" style="rounded=1;whiteSpace=wrap;html=1;fillColor=#f9f7ed;strokeColor=#36393d;" parent="2" vertex="1">
                    <mxGeometry x="240" y="180" width="150" height="40" as="geometry"/>
                </mxCell>
                <mxCell id="7" value="&lt;font color=&quot;#000000&quot;&gt;\/&lt;/font&gt;" style="text;html=1;align=center;verticalAlign=middle;whiteSpace=wrap;rounded=0;fontStyle=1" parent="2" vertex="1">
                    <mxGeometry x="320" y="170" width="90" height="60" as="geometry"/>
                </mxCell>
                <mxCell id="8" value="&lt;font style=&quot;font-size: 17px&quot;&gt;Critère&lt;/font&gt;" style="text;html=1;strokeColor=#36393d;fillColor=none;align=center;verticalAlign=middle;whiteSpace=wrap;rounded=0;fontColor=#FFFFFF;" parent="2" vertex="1">
                    <mxGeometry x="90" y="125" width="60" height="30" as="geometry"/>
                </mxCell>
                <mxCell id="9" value="&lt;font style=&quot;font-size: 17px&quot;&gt;Pathologies&lt;/font&gt;" style="text;html=1;strokeColor=#36393d;fillColor=none;align=center;verticalAlign=middle;whiteSpace=wrap;rounded=0;fontColor=#FFFFFF;" parent="2" vertex="1">
                    <mxGeometry x="100" y="185" width="60" height="30" as="geometry"/>
                </mxCell>
                <mxCell id="10" value="" style="rounded=1;whiteSpace=wrap;html=1;fontSize=17;fillColor=#cce5ff;strokeColor=#36393d;" parent="2" vertex="1">
                    <mxGeometry x="310" y="240" width="100" height="30" as="geometry"/>
                </mxCell>
                <mxCell id="11" value="&lt;font color=&quot;#000000&quot;&gt;Valider&lt;/font&gt;" style="text;html=1;strokeColor=none;fillColor=none;align=center;verticalAlign=middle;whiteSpace=wrap;rounded=0;fontSize=17;fontColor=#FFFFFF;" parent="2" vertex="1">
                    <mxGeometry x="330" y="240" width="60" height="30" as="geometry"/>
                </mxCell>
                <mxCell id="12" value="&lt;font style=&quot;font-size: 17px&quot;&gt;Recherche par symptome&lt;/font&gt;" style="text;html=1;strokeColor=#36393d;fillColor=none;align=center;verticalAlign=middle;whiteSpace=wrap;rounded=0;fontColor=#FFFFFF;" parent="2" vertex="1">
                    <mxGeometry x="700" y="245" width="200" height="30" as="geometry"/>
                </mxCell>
                <mxCell id="14" value="" style="rounded=1;whiteSpace=wrap;html=1;fontSize=17;fillColor=#cce5ff;strokeColor=#36393d;" parent="2" vertex="1">
                    <mxGeometry y="20" width="1170" height="60" as="geometry"/>
                </mxCell>
                <mxCell id="15" value="Accueil" style="rounded=1;whiteSpace=wrap;html=1;fontSize=17;" parent="2" vertex="1">
                    <mxGeometry x="280" y="35" width="90" height="30" as="geometry"/>
                </mxCell>
                <mxCell id="16" value="Liste" style="rounded=1;whiteSpace=wrap;html=1;fontSize=17;" parent="2" vertex="1">
                    <mxGeometry x="460" y="35" width="90" height="30" as="geometry"/>
                </mxCell>
                <mxCell id="17" value="Info" style="rounded=1;whiteSpace=wrap;html=1;fontSize=17;" parent="2" vertex="1">
                    <mxGeometry x="640" y="35" width="90" height="30" as="geometry"/>
                </mxCell>
                <mxCell id="18" value="Compte ur" style="rounded=1;whiteSpace=wrap;html=1;fontSize=17;" parent="2" vertex="1">
                    <mxGeometry x="1050" y="35" width="90" height="30" as="geometry"/>
                </mxCell>
                <mxCell id="20" value="" style="rounded=1;whiteSpace=wrap;html=1;fillColor=#f9f7ed;strokeColor=#36393d;" parent="2" vertex="1">
                    <mxGeometry x="950" y="240" width="150" height="40" as="geometry"/>
                </mxCell>
                <mxCell id="21" value="Liste des pathologies" style="shape=table;startSize=30;container=1;collapsible=0;childLayout=tableLayout;fontStyle=1;align=center;pointerEvents=1;fontSize=17;fontColor=#FFFFFF;fillColor=none;" parent="2" vertex="1">
                    <mxGeometry x="70" y="370" width="780" height="257" as="geometry"/>
                </mxCell>
                <mxCell id="22" value="" style="shape=partialRectangle;html=1;whiteSpace=wrap;collapsible=0;dropTarget=0;pointerEvents=0;fillColor=none;top=0;left=0;bottom=0;right=0;points=[[0,0.5],[1,0.5]];portConstraint=eastwest;fontSize=17;fontColor=#000000;" parent="21" vertex="1">
                    <mxGeometry y="30" width="780" height="70" as="geometry"/>
                </mxCell>
                <mxCell id="23" value="&lt;font color=&quot;#ffffff&quot;&gt;Nom&lt;/font&gt;" style="shape=partialRectangle;html=1;whiteSpace=wrap;connectable=0;fillColor=none;top=0;left=0;bottom=0;right=0;overflow=hidden;pointerEvents=1;fontSize=17;fontColor=#000000;" parent="22" vertex="1">
                    <mxGeometry width="260" height="70" as="geometry">
                        <mxRectangle width="260" height="70" as="alternateBounds"/>
                    </mxGeometry>
                </mxCell>
                <mxCell id="24" value="&lt;font color=&quot;#ffffff&quot;&gt;Critère&lt;/font&gt;" style="shape=partialRectangle;html=1;whiteSpace=wrap;connectable=0;fillColor=none;top=0;left=0;bottom=0;right=0;overflow=hidden;pointerEvents=1;fontSize=17;fontColor=#000000;" parent="22" vertex="1">
                    <mxGeometry x="260" width="260" height="70" as="geometry">
                        <mxRectangle width="260" height="70" as="alternateBounds"/>
                    </mxGeometry>
                </mxCell>
                <mxCell id="25" value="&lt;font color=&quot;#ffffff&quot;&gt;Caractéristiques&lt;/font&gt;" style="shape=partialRectangle;html=1;whiteSpace=wrap;connectable=0;fillColor=none;top=0;left=0;bottom=0;right=0;overflow=hidden;pointerEvents=1;fontSize=17;fontColor=#000000;" parent="22" vertex="1">
                    <mxGeometry x="520" width="260" height="70" as="geometry">
                        <mxRectangle width="260" height="70" as="alternateBounds"/>
                    </mxGeometry>
                </mxCell>
                <mxCell id="26" value="" style="shape=partialRectangle;html=1;whiteSpace=wrap;collapsible=0;dropTarget=0;pointerEvents=0;fillColor=none;top=0;left=0;bottom=0;right=0;points=[[0,0.5],[1,0.5]];portConstraint=eastwest;fontSize=17;fontColor=#000000;" parent="21" vertex="1">
                    <mxGeometry y="100" width="780" height="84" as="geometry"/>
                </mxCell>
                <mxCell id="27" value="&lt;font color=&quot;#ffffff&quot;&gt;Meridien&lt;/font&gt;" style="shape=partialRectangle;html=1;whiteSpace=wrap;connectable=0;fillColor=none;top=0;left=0;bottom=0;right=0;overflow=hidden;pointerEvents=1;fontSize=17;fontColor=#000000;" parent="26" vertex="1">
                    <mxGeometry width="260" height="84" as="geometry">
                        <mxRectangle width="260" height="84" as="alternateBounds"/>
                    </mxGeometry>
                </mxCell>
                <mxCell id="28" value="&lt;font color=&quot;#ffffff&quot;&gt;poumon&lt;/font&gt;" style="shape=partialRectangle;html=1;whiteSpace=wrap;connectable=0;fillColor=none;top=0;left=0;bottom=0;right=0;overflow=hidden;pointerEvents=1;fontSize=17;fontColor=#000000;" parent="26" vertex="1">
                    <mxGeometry x="260" width="260" height="84" as="geometry">
                        <mxRectangle width="260" height="84" as="alternateBounds"/>
                    </mxGeometry>
                </mxCell>
                <mxCell id="29" value="&lt;font color=&quot;#ffffff&quot;&gt;interne&lt;/font&gt;" style="shape=partialRectangle;html=1;whiteSpace=wrap;connectable=0;fillColor=none;top=0;left=0;bottom=0;right=0;overflow=hidden;pointerEvents=1;fontSize=17;fontColor=#000000;" parent="26" vertex="1">
                    <mxGeometry x="520" width="260" height="84" as="geometry">
                        <mxRectangle width="260" height="84" as="alternateBounds"/>
                    </mxGeometry>
                </mxCell>
                <mxCell id="30" value="" style="shape=partialRectangle;html=1;whiteSpace=wrap;collapsible=0;dropTarget=0;pointerEvents=0;fillColor=none;top=0;left=0;bottom=0;right=0;points=[[0,0.5],[1,0.5]];portConstraint=eastwest;fontSize=17;fontColor=#000000;" parent="21" vertex="1">
                    <mxGeometry y="184" width="780" height="73" as="geometry"/>
                </mxCell>
                <mxCell id="31" value="&lt;span style=&quot;color: rgb(255 , 255 , 255)&quot;&gt;Meridien&lt;/span&gt;" style="shape=partialRectangle;html=1;whiteSpace=wrap;connectable=0;fillColor=none;top=0;left=0;bottom=0;right=0;overflow=hidden;pointerEvents=1;fontSize=17;fontColor=#000000;" parent="30" vertex="1">
                    <mxGeometry width="260" height="73" as="geometry">
                        <mxRectangle width="260" height="73" as="alternateBounds"/>
                    </mxGeometry>
                </mxCell>
                <mxCell id="32" value="&lt;span style=&quot;color: rgb(255 , 255 , 255) ; font-family: &amp;#34;helvetica&amp;#34; ; font-size: 17px ; font-style: normal ; font-weight: 400 ; letter-spacing: normal ; text-align: center ; text-indent: 0px ; text-transform: none ; word-spacing: 0px ; background-color: rgb(42 , 42 , 42) ; display: inline ; float: none&quot;&gt;foie&lt;/span&gt;" style="shape=partialRectangle;html=1;whiteSpace=wrap;connectable=0;fillColor=none;top=0;left=0;bottom=0;right=0;overflow=hidden;pointerEvents=1;fontSize=17;fontColor=#000000;" parent="30" vertex="1">
                    <mxGeometry x="260" width="260" height="73" as="geometry">
                        <mxRectangle width="260" height="73" as="alternateBounds"/>
                    </mxGeometry>
                </mxCell>
                <mxCell id="33" value="&lt;span style=&quot;color: rgb(255 , 255 , 255)&quot;&gt;externe&lt;/span&gt;" style="shape=partialRectangle;html=1;whiteSpace=wrap;connectable=0;fillColor=none;top=0;left=0;bottom=0;right=0;overflow=hidden;pointerEvents=1;fontSize=17;fontColor=#000000;" parent="30" vertex="1">
                    <mxGeometry x="520" width="260" height="73" as="geometry">
                        <mxRectangle width="260" height="73" as="alternateBounds"/>
                    </mxGeometry>
                </mxCell>
                <mxCell id="34" value="Que si user connecté" style="swimlane;fontSize=17;fontColor=#FFFFFF;fillColor=none;" parent="2" vertex="1">
                    <mxGeometry x="680" y="190" width="450" height="130" as="geometry"/>
                </mxCell>
                <mxCell id="35" value="&lt;font color=&quot;#000000&quot;&gt;\/&lt;/font&gt;" style="text;html=1;align=center;verticalAlign=middle;whiteSpace=wrap;rounded=0;fontStyle=1" vertex="1" parent="2">
                    <mxGeometry x="1030" y="230" width="90" height="60" as="geometry"/>
                </mxCell>
                <mxCell id="36" value="&lt;font color=&quot;#ffffff&quot;&gt;Symptomes&lt;/font&gt;" style="shape=partialRectangle;html=1;whiteSpace=wrap;connectable=0;fillColor=none;top=0;left=0;bottom=0;right=0;overflow=hidden;pointerEvents=1;fontSize=17;fontColor=#000000;" vertex="1" parent="2">
                    <mxGeometry x="850" y="400" width="230" height="70" as="geometry">
                        <mxRectangle width="344" height="70" as="alternateBounds"/>
                    </mxGeometry>
                </mxCell>
                <mxCell id="37" value="&lt;font color=&quot;#ffffff&quot;&gt;mal de tete&lt;/font&gt;" style="shape=partialRectangle;html=1;whiteSpace=wrap;connectable=0;fillColor=none;top=0;left=0;bottom=0;right=0;overflow=hidden;pointerEvents=1;fontSize=17;fontColor=#000000;" vertex="1" parent="2">
                    <mxGeometry x="850" y="470" width="230" height="84" as="geometry">
                        <mxRectangle width="344" height="84" as="alternateBounds"/>
                    </mxGeometry>
                </mxCell>
                <mxCell id="38" value="&lt;span style=&quot;color: rgb(255 , 255 , 255) ; font-family: &amp;#34;helvetica&amp;#34; ; font-size: 17px ; font-style: normal ; font-weight: 400 ; letter-spacing: normal ; text-align: center ; text-indent: 0px ; text-transform: none ; word-spacing: 0px ; background-color: rgb(42 , 42 , 42) ; display: inline ; float: none&quot;&gt;rhume du poumon&lt;/span&gt;" style="shape=partialRectangle;html=1;whiteSpace=wrap;connectable=0;fillColor=none;top=0;left=0;bottom=0;right=0;overflow=hidden;pointerEvents=1;fontSize=17;fontColor=#000000;" vertex="1" parent="2">
                    <mxGeometry x="850" y="554" width="240" height="73" as="geometry">
                        <mxRectangle width="344" height="73" as="alternateBounds"/>
                    </mxGeometry>
                </mxCell>
            </root>
        </mxGraphModel>
    </diagram>
</mxfile>